<svg xmlns="http://www.w3.org/2000/svg" version="1.1" xmlns:xlink="http://www.w3.org/1999/xlink" xmlns:svgjs="http://svgjs.com/svgjs" id="Pattern843SvgRootPreview" width="100%" height="100%"><defs><pattern x="0" y="0" width="1" height="1" patternUnits="userSpaceOnUse" id="Pattern843Layer1"><g id="PatternRootContent1"><g id="Pattern843Layer1background"><rect width="1" height="1" id="Pattern843Background1" class="fill_color_1" fill="#ff0066"></rect></g></g></pattern><pattern x="0" y="0" width="78.27906976744187" height="50.651162790697676" patternUnits="userSpaceOnUse" id="Pattern843Layer2" patternTransform="matrix(5.878304635907295e-17,0.96,-0.96,5.878304635907295e-17,0,0)" viewBox="0 0 78.27906976744187 50.651162790697676" preserveAspectRatio="xMidYMid slice"><g id="PatternRootContent2" transform="scale(2.302325581395349) rotate(0)"><g id="Pattern843Layer2Element1"><use xlink:href="#Pattern843Element1" x="-37" y="-31" transform="translate(-19.5, -13.5) scale(1) translate(19.5, 13.5) rotate(0, -17, -11)"></use><use xlink:href="#Pattern843Element1" x="-3" y="-31" transform="translate(14.5, -13.5) scale(1) translate(-14.5, 13.5) rotate(0, 17, -11)"></use><use xlink:href="#Pattern843Element1" x="-3" y="-9" transform="translate(14.5, 8.5) scale(1) translate(-14.5, -8.5) rotate(0, 17, 11)"></use><use xlink:href="#Pattern843Element1" x="-37" y="-9" transform="translate(-19.5, 8.5) scale(1) translate(19.5, -8.5) rotate(0, -17, 11)"></use><use xlink:href="#Pattern843Element1" x="31" y="-9" transform="translate(48.5, 8.5) scale(1) translate(-48.5, -8.5) rotate(0, 51, 11)"></use><use xlink:href="#Pattern843Element1" x="-3" y="13" transform="translate(14.5, 30.5) scale(1) translate(-14.5, -30.5) rotate(0, 17, 33)"></use><use xlink:href="#Pattern843Element1" x="-3" y="13" transform="translate(14.5, 30.5) scale(1) translate(-14.5, -30.5) rotate(0, 17, 33)"></use></g></g></pattern><symbol id="Pattern843Element1"><polygon points="28.813,14.261 28.761,14.312 28.662,14.213 16.949,2.5 5.424,2.5 18.715,15.793 22.898,19.976 22.998,20.076 18.866,24.209 5.574,37.5 17.101,37.5 28.813,25.787 34.576,20.024" class="fill_color_2" fill="#000000"></polygon></symbol></defs><rect width="100%" height="100%" id="Pattern843RctLayer1" fill="url(#Pattern843Layer1)"></rect><rect width="100%" height="100%" id="Pattern843RctLayer2" fill="url(#Pattern843Layer2)"></rect></svg>